<?xml version="1.0" encoding="UTF-8"?>
<svg width="25px" height="24px" viewBox="0 0 25 24" version="1.1" xmlns="http://www.w3.org/2000/svg" xmlns:xlink="http://www.w3.org/1999/xlink">
    <title>github</title>
    <g id="Página-1" stroke="none" stroke-width="1" fill="none" fill-rule="evenodd">
        <g id="MacBook-Pro-13&quot;" transform="translate(-1254, -31)" fill="#D8D8D8" fill-rule="nonzero">
            <g id="Header" transform="translate(72, 17)">
                <g id="github" transform="translate(1182, 14)">
                    <path d="M8.36189516,19.3247649 C8.36189516,19.4240189 8.24596774,19.5034222 8.09979838,19.5034222 C7.93346774,19.5183103 7.81754032,19.4389071 7.81754032,19.3247649 C7.81754032,19.2255109 7.93346774,19.1461077 8.0796371,19.1461077 C8.23084678,19.1312195 8.36189516,19.2106228 8.36189516,19.3247649 Z M6.79435484,19.1014433 C6.75907258,19.2006973 6.85987904,19.3148395 7.01108871,19.3446157 C7.1421371,19.3942428 7.29334678,19.3446157 7.32358871,19.2453617 C7.35383064,19.1461077 7.25806452,19.0319654 7.10685484,18.9873011 C6.97580646,18.9525622 6.8296371,19.0021893 6.79435484,19.1014433 Z M9.02217741,19.0170773 C8.87600806,19.0518163 8.77520162,19.1461077 8.79032258,19.2602498 C8.80544354,19.3595038 8.93649196,19.4240189 9.08770161,19.38928 C9.23387098,19.3545412 9.33467741,19.2602498 9.31955643,19.1609957 C9.30443545,19.0667044 9.16834679,19.0021893 9.02217741,19.0170773 Z M12.3387096,0 C5.34778226,0 0,5.22572611 0,12.1089949 C0,17.6126325 3.51814516,22.3222374 8.54334678,23.9797802 C9.18850804,24.0939223 9.41532259,23.7018688 9.41532259,23.3792932 C9.41532259,23.0716056 9.40020161,21.3743612 9.40020161,20.3321936 C9.40020161,20.3321936 5.8719758,21.076599 5.13104838,18.8533081 C5.13104838,18.8533081 4.55645162,17.4091616 3.72983871,17.0369589 C3.72983871,17.0369589 2.57560484,16.2578146 3.81048388,16.2727027 C3.81048388,16.2727027 5.0655242,16.3719567 5.75604838,17.55308 C6.85987904,19.4686833 8.70967742,18.9178233 9.43044357,18.5902849 C9.54637098,17.7962525 9.87399196,17.2453925 10.2368952,16.9178541 C7.41935484,16.6101664 4.5766129,16.2081876 4.5766129,11.4340674 C4.5766129,10.0693241 4.95967742,9.38447111 5.76612904,8.51103539 C5.63508064,8.18845971 5.20665322,6.85845534 5.89717742,5.14136015 C6.95060484,4.81878447 9.375,6.48128992 9.375,6.48128992 C10.3830646,6.20337856 11.4667338,6.05946018 12.5403226,6.05946018 C13.6139112,6.05946018 14.6975806,6.20337856 15.7056452,6.48128992 C15.7056452,6.48128992 18.1300404,4.81382177 19.1834678,5.14136015 C19.873992,6.86341805 19.4455646,8.18845971 19.3145162,8.51103539 C20.1209678,9.38943378 20.6149194,10.0742868 20.6149194,11.4340674 C20.6149194,16.2230757 17.6461694,16.6052037 14.828629,16.9178541 C15.2923388,17.3099076 15.6854838,18.054313 15.6854838,19.2205482 C15.6854838,20.892979 15.6703629,22.9624261 15.6703629,23.3693677 C15.6703629,23.6919434 15.9022178,24.083997 16.5423387,23.9698548 C21.5826612,22.3222374 25,17.6126325 25,12.1089949 C25,5.22572611 19.3296371,0 12.3387096,0 Z M4.89919354,17.1163621 C4.83366936,17.1659892 4.84879032,17.2801313 4.9344758,17.3744227 C5.01512096,17.453826 5.13104838,17.4885649 5.19657258,17.4240497 C5.26209678,17.3744227 5.2469758,17.2602805 5.16129032,17.1659892 C5.08064516,17.086586 4.96471774,17.051847 4.89919354,17.1163621 Z M4.35483871,16.7143832 C4.31955646,16.7788983 4.36995968,16.8583016 4.47076613,16.9079286 C4.55141129,16.9575557 4.65221774,16.9426676 4.6875,16.8731897 C4.72278226,16.8086746 4.67237904,16.7292713 4.57157258,16.6796443 C4.47076613,16.6498681 4.39012096,16.6647562 4.35483871,16.7143832 Z M5.98790322,18.4811054 C5.90725806,18.5456205 5.9375,18.6945016 6.05342742,18.788793 C6.16935484,18.9029352 6.3155242,18.9178233 6.38104838,18.83842 C6.44657258,18.7739049 6.41633064,18.6250238 6.3155242,18.5307325 C6.2046371,18.4165903 6.05342742,18.4017021 5.98790322,18.4811054 Z M5.41330646,17.7515881 C5.33266129,17.8012151 5.33266129,17.9302454 5.41330646,18.0443876 C5.49395162,18.1585297 5.63004032,18.2081568 5.69556452,18.1585297 C5.77620968,18.0940146 5.77620968,17.9649844 5.69556452,17.8508421 C5.625,17.7367 5.49395162,17.687073 5.41330646,17.7515881 Z" id="Shape"></path>
                </g>
            </g>
        </g>
    </g>
</svg>