<?xml version="1.0" encoding="UTF-8"?>
<svg xmlns="http://www.w3.org/2000/svg" version="1.1" viewBox="0 0 26 24">
  <defs>
    <style>
      .cls-1 {
        fill: #0d0d0d;
      }

      .cls-2 {
        fill: #d8d8d8;
      }
    </style>
  </defs>
  <!-- Generator: Adobe Illustrator 28.7.1, SVG Export Plug-In . SVG Version: 1.2.0 Build 142)  -->
  <g>
    <g id="Capa_1">
      <g id="Página-1">
        <g id="MacBook-Pro-13_x22_">
          <g id="Header">
            <g id="instaagram">
              <ellipse id="_Óvalo-Copia-2" data-name="Óvalo-Copia-2" class="cls-2" cx="13" cy="12" rx="13" ry="12"/>
              <g id="instagram">
                <path id="Shape" class="cls-1" d="M13,7.9c-2.3,0-4.1,1.8-4.1,4.1s1.8,4.1,4.1,4.1,4.1-1.8,4.1-4.1-1.8-4.1-4.1-4.1ZM13,14.7c-1.5,0-2.7-1.2-2.7-2.7s1.2-2.7,2.7-2.7,2.7,1.2,2.7,2.7-1.2,2.7-2.7,2.7h0ZM18.2,7.7c0,.5-.4,1-1,1s-1-.4-1-1,.4-1,1-1,1,.4,1,1ZM20.9,8.7c0-1.3-.4-2.4-1.3-3.4-.9-.9-2.1-1.2-3.4-1.3-1.3,0-5.3,0-6.6,0-1.3,0-2.4.4-3.4,1.3-.9.9-1.2,2.1-1.3,3.4,0,1.3,0,5.3,0,6.6,0,1.3.4,2.4,1.3,3.4s2.1,1.2,3.4,1.3c1.3,0,5.3,0,6.6,0,1.3,0,2.4-.4,3.4-1.3.9-.9,1.2-2.1,1.3-3.4,0-1.3,0-5.3,0-6.6ZM19.2,16.7c-.3.7-.8,1.2-1.5,1.5-1.1.4-3.6.3-4.7.3s-3.7,0-4.7-.3c-.7-.3-1.2-.8-1.5-1.5-.4-1.1-.3-3.6-.3-4.7s0-3.7.3-4.7c.3-.7.8-1.2,1.5-1.5,1.1-.4,3.6-.3,4.7-.3s3.7,0,4.7.3c.7.3,1.2.8,1.5,1.5.4,1.1.3,3.6.3,4.7s0,3.7-.3,4.7Z"/>
              </g>
            </g>
          </g>
        </g>
      </g>
    </g>
  </g>
</svg>