<?xml version="1.0" encoding="UTF-8"?>
<svg width="26px" height="24px" viewBox="0 0 26 24" version="1.1" xmlns="http://www.w3.org/2000/svg" xmlns:xlink="http://www.w3.org/1999/xlink">
    <title>linkedin</title>
    <g id="Página-1" stroke="none" stroke-width="1" fill="none" fill-rule="evenodd">
        <g id="MacBook-Pro-13&quot;" transform="translate(-1212, -31)">
            <g id="Header" transform="translate(72, 17)">
                <g id="linkedin" transform="translate(1140, 14)">
                    <ellipse id="Óvalo" fill="#D8D8D8" cx="13" cy="12" rx="13" ry="12"></ellipse>
                    <g id="linkedin-in" transform="translate(5, 4)" fill="#0D0D0D" fill-rule="nonzero">
                        <path d="M3.58214286,16 L0.264285714,16 L0.264285714,5.31785714 L3.58214286,5.31785714 L3.58214286,16 Z M1.92142857,3.86071428 C0.860714283,3.86071428 0,2.98214286 0,1.92142857 C0,0.860252874 0.860252874,0 1.92142857,0 C2.98260427,0 3.84285714,0.860252874 3.84285714,1.92142857 C3.84285714,2.98214286 2.98214286,3.86071428 1.92142857,3.86071428 Z M15.9964286,16 L12.6857143,16 L12.6857143,10.8 C12.6857143,9.56071428 12.6607143,7.97142855 10.9607143,7.97142855 C9.23571428,7.97142855 8.97142855,9.31785717 8.97142855,10.7107143 L8.97142855,16 L5.65714286,16 L5.65714286,5.31785714 L8.83928572,5.31785714 L8.83928572,6.775 L8.88571428,6.775 C9.32857145,5.93571428 10.4107143,5.05 12.025,5.05 C15.3821428,5.05 16,7.26071428 16,10.1321428 L16,16 L15.9964286,16 Z" id="Shape"></path>
                    </g>
                </g>
            </g>
        </g>
    </g>
</svg>