<?xml version="1.0" encoding="UTF-8"?>
<svg width="26px" height="24px" viewBox="0 0 26 24" version="1.1" xmlns="http://www.w3.org/2000/svg" xmlns:xlink="http://www.w3.org/1999/xlink">
    <title>youtube</title>
    <g id="Página-1" stroke="none" stroke-width="1" fill="none" fill-rule="evenodd">
        <g id="youtube" fill-rule="nonzero">
            <g id="instaagram" fill="#D8D8D8">
                <ellipse id="_Óvalo-Copia-2" cx="13" cy="12" rx="13" ry="12"></ellipse>
            </g>
            <g id="Grupo" transform="translate(3.3, 4)" fill="#000000">
                <path d="M19.6,7.9 C19.6,9 19.6,10.1 19.6,11.1 C19.6,11.7 19.6,12.3 19.3,12.9 C19.1,13.4 18.9,13.9 18.5,14.3 C17.7,15.2 16.7,15.7 15.6,15.8 C15.4,15.8 15.3,15.8 15.1,15.8 C14.5,15.8 13.8,15.8 13.2,15.8 C12.5,15.8 11.7,15.8 11,15.8 C9.2,15.8 7.5,15.8 5.7,15.8 C5.4,15.8 5.1,15.8 4.8,15.8 C4.4,15.8 3.9,15.8 3.5,15.7 C2.7,15.5 2,15.2 1.4,14.6 C0.6,13.9 0.2,13 4.4408921e-16,12 C4.4408921e-16,11.6 4.4408921e-16,11.3 4.4408921e-16,10.9 C4.4408921e-16,8.9 4.4408921e-16,6.8 4.4408921e-16,4.8 C4.4408921e-16,4.1 0.1,3.4 0.4,2.7 C0.6,2.3 0.8,1.9 1.2,1.5 C1.6,1.1 2,0.8 2.5,0.5 C3,0.3 3.5,0.1 4,0 C4.2,0 4.4,0 4.6,0 C5.8,0 7,0 8.2,0 C9.2,0 10.2,0 11.3,0 C12.4,0 13.5,0 14.6,0 C14.9,0 15.2,0 15.5,0 C16,0 16.6,0.2 17.1,0.4 C17.5,0.6 17.8,0.8 18.1,1.1 C18.5,1.5 18.9,1.9 19.1,2.4 C19.4,3 19.6,3.6 19.6,4.2 C19.6,4.4 19.6,4.5 19.6,4.7 C19.6,5.7 19.6,6.7 19.6,7.7 L19.6,7.9 Z M9.60390922,1.2 L9.39027031,1.2 C7.78522354,1.2 6.62926853,1.15678649 4.99076302,1.15678649 C4.83250777,1.15678649 4.53664028,1.15069041 4.21561904,1.2 C3.89459781,1.24930959 3.79007374,1.31700147 3.6,1.4 C2.9,1.6 2.4,1.9 1.9,2.4 C1.4,3 1.1,3.7 1.1,4.5 C1.1,5.6 1.1,6.8 1.1,7.9 C1.1,8.3 1.1,8.7 1.1,9.1 C1.1,9.6 1.1,10 1.1,10.5 C1.1,10.8 1.1,11.1 1.1,11.4 C1.1,11.5 1.1,11.7 1.1,11.8 C1.2,12.6 1.6,13.2 2.2,13.7 C2.8,14.2 3.5,14.5 4.3,14.5 C4.7,14.5 5,14.5 5.4,14.5 C8.6,14.5 11.8,14.5 15.1,14.5 C15.6,14.5 16.1,14.4 16.6,14.1 C17.4,13.7 17.9,13.1 18.1,12.3 C18.3,11.8 18.3,11.2 18.3,10.6 C18.3,10 18.3,9.5 18.3,8.9 C18.3,7.4 18.3,6 18.3,4.5 C18.3,4.3 18.3,4.1 18.3,3.9 C18.2,3.2 17.9,2.6 17.3,2.1 C16.7,1.5 15.9,1.2 15,1.2 C13.3,1.2 11.5,1.2 9.8,1.2 L9.60390922,1.2 Z" id="Forma"></path>
                <path d="M7.1,8 C7.1,7.7 7.1,7.4 7.1,7.1 C7.1,6.7 7.1,6.4 7.1,6 C7.1,5.8 7.1,5.5 7.2,5.3 C7.5,4.7 8.1,4.4 8.8,4.6 C9,4.6 9.2,4.8 9.4,4.9 C10,5.4 10.7,5.8 11.3,6.3 C11.6,6.5 11.8,6.7 12.1,6.9 C12.4,7.1 12.5,7.4 12.6,7.7 C12.6,8.1 12.6,8.5 12.3,8.9 C12.2,9 12.1,9.1 11.9,9.2 C11.5,9.5 11.1,9.8 10.7,10 C10.5,10.2 10.2,10.4 10,10.5 C9.7,10.8 9.3,11 8.9,11.2 C8.7,11.3 8.4,11.4 8.2,11.3 C7.9,11.3 7.7,11.1 7.5,10.9 C7.2,10.6 7.1,10.2 7.1,9.8 C7.1,9.2 7.1,8.5 7.1,7.9 L7.1,7.9 L7.1,8 Z M8.3,8 C8.3,8.6 8.3,9.3 8.3,9.9 C8.3,9.9 8.3,9.9 8.3,9.9 C8.3,9.9 8.3,10 8.4,9.9 C8.4,9.9 8.6,9.9 8.6,9.8 C8.8,9.7 9,9.5 9.2,9.4 C9.5,9.2 9.8,8.9 10.1,8.7 C10.4,8.5 10.7,8.3 11,8.1 C11,8.1 11.2,8 11.2,7.9 C11.2,7.9 11.2,7.8 11.2,7.7 C11.2,7.7 11.1,7.7 11,7.6 C10.8,7.5 10.6,7.4 10.4,7.2 C9.9,6.8 9.3,6.4 8.8,6 C8.7,6 8.5,5.8 8.4,5.7 C8.4,5.7 8.3,5.7 8.2,5.7 C8.2,5.7 8.2,5.8 8.2,5.9 C8.2,6.1 8.2,6.2 8.2,6.4 C8.2,6.9 8.2,7.4 8.2,7.8 L8.3,8 Z" id="Forma"></path>
            </g>
        </g>
    </g>
</svg>