<?xml version="1.0" encoding="UTF-8"?>
<svg width="26px" height="24px" viewBox="0 0 26 24" version="1.1" xmlns="http://www.w3.org/2000/svg" xmlns:xlink="http://www.w3.org/1999/xlink">
    <title>BEHANCE</title>
    <g id="Página-1" stroke="none" stroke-width="1" fill="none" fill-rule="evenodd">
        <g id="MacBook-Pro-13&quot;" transform="translate(-1291, -31)">
            <g id="Header" transform="translate(72, 17)">
                <g id="BEHANCE" transform="translate(1219, 14)">
                    <ellipse id="Óvalo-Copia" fill="#D8D8D8" cx="13" cy="12" rx="13" ry="12"></ellipse>
                    <g id="behance" transform="translate(4, 6)" fill="#0D0D0D" fill-rule="nonzero">
                        <path d="M7.65277778,5.37690392 C8.70173613,4.87178068 9.24930557,4.10744946 9.24930557,2.91775132 C9.24930557,0.57158682 7.51423613,0 5.51197915,0 L0,0 L0,11.777347 L5.66701387,11.777347 C7.79131943,11.777347 9.78697915,10.7504846 9.78697915,8.35779563 C9.78697915,6.87898089 9.09097222,5.78565494 7.65277778,5.37690392 L7.65277778,5.37690392 Z M2.56961806,2.0105234 L4.98090278,2.0105234 C5.9078125,2.0105234 6.74236113,2.27305456 6.74236113,3.35641097 C6.74236113,4.3566879 6.09253472,4.7587926 5.17552085,4.7587926 L2.56961806,4.7587926 L2.56961806,2.0105234 L2.56961806,2.0105234 Z M5.31736113,9.77679314 L2.56961806,9.77679314 L2.56961806,6.53337028 L5.37013887,6.53337028 C6.5015625,6.53337028 7.21736113,7.00858486 7.21736113,8.21489894 C7.21736113,9.40459708 6.36302085,9.77679314 5.31736113,9.77679314 L5.31736113,9.77679314 Z M17.1428819,1.77790086 L12.4027778,1.77790086 L12.4027778,0.618111328 L17.1428819,0.618111328 L17.1428819,1.77790086 L17.1428819,1.77790086 Z M19,7.63666574 C19,5.11437277 17.5354167,3.01080033 14.8800347,3.01080033 C12.3005208,3.01080033 10.5489583,4.96482969 10.5489583,7.52367766 C10.5489583,10.1788978 12.2081597,12 14.8800347,12 C16.9020833,12 18.2116319,11.0828026 18.8416667,9.13209637 L16.7899306,9.13209637 C16.5689236,9.8598726 15.6585069,10.2453614 14.9526042,10.2453614 C13.5902778,10.2453614 12.8744792,9.44115203 12.8744792,8.07532542 L18.9802083,8.07532542 C18.9901042,7.93575189 19,7.78620882 19,7.63666574 Z M12.8777778,6.59983385 C12.9536458,5.47992245 13.6925347,4.77873166 14.8074653,4.77873166 C15.9751736,4.77873166 16.5623264,5.46995294 16.6612847,6.59983385 L12.8777778,6.59983385 Z" id="Shape"></path>
                    </g>
                </g>
            </g>
        </g>
    </g>
</svg>