<?xml version="1.0" encoding="UTF-8"?>
<svg width="26px" height="24px" viewBox="0 0 26 24" version="1.1" xmlns="http://www.w3.org/2000/svg" xmlns:xlink="http://www.w3.org/1999/xlink">
    <title>instaagram</title>
    <g id="Página-1" stroke="none" stroke-width="1" fill="none" fill-rule="evenodd">
        <g id="MacBook-Pro-13&quot;" transform="translate(-1330, -31)">
            <g id="Header" transform="translate(72, 17)">
                <g id="instaagram" transform="translate(1258, 14)">
                    <ellipse id="Óvalo-Copia-2" fill="#D8D8D8" cx="13" cy="12" rx="13" ry="12"></ellipse>
                    <g id="instagram" transform="translate(5, 4)" fill="#0D0D0D" fill-rule="nonzero">
                        <path d="M8.00178473,3.89780207 C5.73162297,3.89780207 3.90050195,5.72933169 3.90050195,7.99999999 C3.90050195,10.2706683 5.73162297,12.1021979 8.00178473,12.1021979 C10.2719465,12.1021979 12.1030675,10.2706683 12.1030675,7.99999999 C12.1030675,5.72933169 10.2719465,3.89780207 8.00178473,3.89780207 Z M8.00178473,10.6669642 C6.53474621,10.6669642 5.3354155,9.47093605 5.3354155,7.99999999 C5.3354155,6.52906393 6.53117679,5.33303581 8.00178473,5.33303581 C9.47239261,5.33303581 10.6681539,6.52906393 10.6681539,7.99999999 C10.6681539,9.47093605 9.46882319,10.6669642 8.00178473,10.6669642 L8.00178473,10.6669642 Z M13.22744,3.73000111 C13.22744,4.26196585 12.7991076,4.6868236 12.270831,4.6868236 C11.7389849,4.6868236 11.314222,4.25839562 11.314222,3.73000111 C11.314222,3.2016066 11.7425544,2.77317862 12.270831,2.77317862 C12.7991076,2.77317862 13.22744,3.2016066 13.22744,3.73000111 Z M15.9437813,4.70110454 C15.8831009,3.41939083 15.5904071,2.28405667 14.6516453,1.34865558 C13.7164528,0.41325449 12.581372,0.12049537 11.2999442,0.0562311725 C9.97925267,-0.0187437242 6.02074735,-0.0187437242 4.70005577,0.0562311725 C3.42219743,0.116925136 2.28711656,0.409684257 1.34835471,1.34508535 C0.409592861,2.28048644 0.120468488,3.41582059 0.0562186279,4.6975343 C-0.0187395426,6.01852058 -0.0187395426,9.97790916 0.0562186279,11.2988954 C0.116899052,12.5806092 0.409592861,13.7159433 1.34835471,14.6513444 C2.28711656,15.5867455 3.418628,15.8795046 4.70005577,15.9437688 C6.02074735,16.0187437 9.97925267,16.0187437 11.2999442,15.9437688 C12.581372,15.8830749 13.7164528,15.5903157 14.6516453,14.6513444 C15.5868377,13.7159433 15.8795315,12.5806092 15.9437813,11.2988954 C16.0187396,9.97790916 16.0187396,6.02209081 15.9437813,4.70110454 Z M14.2375906,12.716278 C13.9591746,13.4160437 13.4201896,13.9551489 12.7170106,14.2371973 C11.6640268,14.6549146 9.1654211,14.5585183 8.00178473,14.5585183 C6.83814836,14.5585183 4.33597323,14.6513444 3.28655883,14.2371973 C2.58694925,13.9587192 2.04796431,13.419614 1.7659788,12.716278 C1.34835471,11.6630593 1.4447295,9.16389599 1.4447295,7.99999999 C1.4447295,6.83610399 1.35192415,4.33337052 1.7659788,3.28372197 C2.04439487,2.58395626 2.58337981,2.04485105 3.28655883,1.76280263 C4.33954266,1.34508535 6.83814836,1.44148165 8.00178473,1.44148165 C9.1654211,1.44148165 11.6675962,1.34865558 12.7170106,1.76280263 C13.4166202,2.04128082 13.9556051,2.58038603 14.2375906,3.28372197 C14.6552147,4.33694075 14.5588399,6.83610399 14.5588399,7.99999999 C14.5588399,9.16389599 14.6552147,11.6666295 14.2375906,12.716278 Z" id="Shape"></path>
                    </g>
                </g>
            </g>
        </g>
    </g>
</svg>